M48
; DRILL file {KiCad (6.0.1)} date Fri Jan 21 00:47:42 2022
; FORMAT={-:-/ absolute / metric / decimal}
; #@! TF.CreationDate,2022-01-21T00:47:42+01:00
; #@! TF.GenerationSoftware,Kicad,Pcbnew,(6.0.1)
; #@! TF.FileFunction,Plated,1,2,PTH
FMAT,2
METRIC
; #@! TA.AperFunction,Plated,PTH,ViaDrill
T1C0.300
; #@! TA.AperFunction,Plated,PTH,ComponentDrill
T2C0.800
%
G90
G05
T1
X121.92Y-87.63
X121.92Y-92.71
X125.73Y-66.04
X125.73Y-68.58
X125.73Y-71.12
X125.73Y-73.66
X125.73Y-76.2
X125.73Y-78.74
X125.73Y-81.28
X125.73Y-83.82
X125.73Y-86.36
X125.73Y-88.9
X125.73Y-91.44
X125.73Y-93.98
X125.73Y-96.52
X125.73Y-99.06
X127.03Y-69.88
T2
X118.13Y-66.04
X118.13Y-68.58
X118.13Y-71.12
X118.13Y-73.66
X118.13Y-76.2
X118.13Y-78.74
X118.13Y-81.28
X118.13Y-83.82
X118.13Y-86.36
X118.13Y-88.9
X118.13Y-91.44
X118.13Y-93.98
X118.13Y-96.52
X118.13Y-99.06
X133.37Y-66.04
X133.37Y-68.58
X133.37Y-71.12
X133.37Y-73.66
X133.37Y-76.2
X133.37Y-78.74
X133.37Y-81.28
X133.37Y-83.82
X133.37Y-86.36
X133.37Y-88.9
X133.37Y-91.44
X133.37Y-93.98
X133.37Y-96.52
X133.37Y-99.06
T0
M30
