%TF.GenerationSoftware,KiCad,Pcbnew,(6.0.1)*%
%TF.CreationDate,2022-01-21T00:47:32+01:00*%
%TF.ProjectId,bosch-kf163-diode-pll,626f7363-682d-46b6-9631-36332d64696f,2*%
%TF.SameCoordinates,Original*%
%TF.FileFunction,Soldermask,Bot*%
%TF.FilePolarity,Negative*%
%FSLAX46Y46*%
G04 Gerber Fmt 4.6, Leading zero omitted, Abs format (unit mm)*
G04 Created by KiCad (PCBNEW (6.0.1)) date 2022-01-21 00:47:32*
%MOMM*%
%LPD*%
G01*
G04 APERTURE LIST*
%ADD10R,2.400000X1.600000*%
%ADD11O,2.400000X1.600000*%
%ADD12R,1.000000X1.500000*%
%ADD13R,1.500000X1.000000*%
G04 APERTURE END LIST*
D10*
%TO.C,U1*%
X118130000Y-66040000D03*
D11*
X118130000Y-68580000D03*
X118130000Y-71120000D03*
X118130000Y-73660000D03*
X118130000Y-76200000D03*
X118130000Y-78740000D03*
X118130000Y-81280000D03*
X118130000Y-83820000D03*
X118130000Y-86360000D03*
X118130000Y-88900000D03*
X118130000Y-91440000D03*
X118130000Y-93980000D03*
X118130000Y-96520000D03*
X118130000Y-99060000D03*
X133370000Y-99060000D03*
X133370000Y-96520000D03*
X133370000Y-93980000D03*
X133370000Y-91440000D03*
X133370000Y-88900000D03*
X133370000Y-86360000D03*
X133370000Y-83820000D03*
X133370000Y-81280000D03*
X133370000Y-78740000D03*
X133370000Y-76200000D03*
X133370000Y-73660000D03*
X133370000Y-71120000D03*
X133370000Y-68580000D03*
X133370000Y-66040000D03*
%TD*%
D12*
%TO.C,JP30*%
X129525000Y-99060000D03*
X130825000Y-99060000D03*
%TD*%
%TO.C,JP5*%
X127030000Y-76200000D03*
X125730000Y-76200000D03*
X124430000Y-76200000D03*
%TD*%
D13*
%TO.C,JP16*%
X121920000Y-86330000D03*
X121920000Y-87630000D03*
X121920000Y-88930000D03*
%TD*%
D12*
%TO.C,JP3*%
X127030000Y-71120000D03*
X125730000Y-71120000D03*
X124430000Y-71120000D03*
%TD*%
%TO.C,JP29*%
X129525000Y-96520000D03*
X130825000Y-96520000D03*
%TD*%
%TO.C,JP14*%
X127030000Y-99060000D03*
X125730000Y-99060000D03*
X124430000Y-99060000D03*
%TD*%
%TO.C,JP32*%
X121935000Y-96520000D03*
X120635000Y-96520000D03*
%TD*%
%TO.C,JP23*%
X129525000Y-81280000D03*
X130825000Y-81280000D03*
%TD*%
%TO.C,JP19*%
X129525000Y-71120000D03*
X130825000Y-71120000D03*
%TD*%
%TO.C,JP28*%
X129525000Y-93980000D03*
X130825000Y-93980000D03*
%TD*%
%TO.C,JP22*%
X129525000Y-78740000D03*
X130825000Y-78740000D03*
%TD*%
%TO.C,JP26*%
X129525000Y-88900000D03*
X130825000Y-88900000D03*
%TD*%
%TO.C,JP31*%
X121935000Y-99060000D03*
X120635000Y-99060000D03*
%TD*%
%TO.C,JP27*%
X129525000Y-91440000D03*
X130825000Y-91440000D03*
%TD*%
%TO.C,JP17*%
X129525000Y-66040000D03*
X130825000Y-66040000D03*
%TD*%
%TO.C,JP12*%
X127030000Y-93980000D03*
X125730000Y-93980000D03*
X124430000Y-93980000D03*
%TD*%
%TO.C,JP20*%
X129525000Y-73660000D03*
X130825000Y-73660000D03*
%TD*%
%TO.C,JP1*%
X127030000Y-66040000D03*
X125730000Y-66040000D03*
X124430000Y-66040000D03*
%TD*%
%TO.C,JP9*%
X127030000Y-86360000D03*
X125730000Y-86360000D03*
X124430000Y-86360000D03*
%TD*%
%TO.C,JP24*%
X129525000Y-83820000D03*
X130825000Y-83820000D03*
%TD*%
%TO.C,JP13*%
X127030000Y-96520000D03*
X125730000Y-96520000D03*
X124430000Y-96520000D03*
%TD*%
%TO.C,JP21*%
X129525000Y-76200000D03*
X130825000Y-76200000D03*
%TD*%
%TO.C,JP10*%
X127030000Y-88900000D03*
X125730000Y-88900000D03*
X124430000Y-88900000D03*
%TD*%
%TO.C,JP4*%
X127030000Y-73660000D03*
X125730000Y-73660000D03*
X124430000Y-73660000D03*
%TD*%
%TO.C,JP25*%
X129525000Y-86360000D03*
X130825000Y-86360000D03*
%TD*%
D13*
%TO.C,JP15*%
X121920000Y-91410000D03*
X121920000Y-92710000D03*
X121920000Y-94010000D03*
%TD*%
D12*
%TO.C,JP7*%
X127030000Y-81280000D03*
X125730000Y-81280000D03*
X124430000Y-81280000D03*
%TD*%
%TO.C,JP8*%
X127030000Y-83820000D03*
X125730000Y-83820000D03*
X124430000Y-83820000D03*
%TD*%
%TO.C,JP11*%
X127030000Y-91440000D03*
X125730000Y-91440000D03*
X124430000Y-91440000D03*
%TD*%
%TO.C,JP2*%
X127030000Y-68580000D03*
X125730000Y-68580000D03*
X124430000Y-68580000D03*
%TD*%
%TO.C,JP6*%
X127030000Y-78740000D03*
X125730000Y-78740000D03*
X124430000Y-78740000D03*
%TD*%
%TO.C,JP18*%
X129525000Y-68580000D03*
X130825000Y-68580000D03*
%TD*%
M02*
