%FSLAX45Y45*%
G04 Gerber Fmt 4.5, Leading zero omitted, Abs format (unit mm)*
G04 Created by KiCad (PCBNEW (6.0.1)) date 2022-01-21 00:47:44*
%MOMM*%
%LPD*%
G01*
G04 APERTURE LIST*
%TA.AperFunction,Profile*%
%ADD10C,0.150000*%
%TD*%
%ADD11C,0.200000*%
%ADD12C,0.030000*%
%ADD13C,0.080000*%
G04 APERTURE END LIST*
D10*
X13523000Y-10103000D02*
X13523000Y-6403000D01*
X11623000Y-10103000D02*
X13523000Y-10103000D01*
X11623000Y-6403000D02*
X11623000Y-10103000D01*
X13523000Y-6403000D02*
X11623000Y-6403000D01*
D11*
D12*
X12177000Y-8748000D02*
X12207000Y-8778000D01*
X12207000Y-8748000D02*
X12177000Y-8778000D01*
X12177000Y-9256000D02*
X12207000Y-9286000D01*
X12207000Y-9256000D02*
X12177000Y-9286000D01*
X12558000Y-6589000D02*
X12588000Y-6619000D01*
X12588000Y-6589000D02*
X12558000Y-6619000D01*
X12558000Y-6843000D02*
X12588000Y-6873000D01*
X12588000Y-6843000D02*
X12558000Y-6873000D01*
X12558000Y-7097000D02*
X12588000Y-7127000D01*
X12588000Y-7097000D02*
X12558000Y-7127000D01*
X12558000Y-7351000D02*
X12588000Y-7381000D01*
X12588000Y-7351000D02*
X12558000Y-7381000D01*
X12558000Y-7605000D02*
X12588000Y-7635000D01*
X12588000Y-7605000D02*
X12558000Y-7635000D01*
X12558000Y-7859000D02*
X12588000Y-7889000D01*
X12588000Y-7859000D02*
X12558000Y-7889000D01*
X12558000Y-8113000D02*
X12588000Y-8143000D01*
X12588000Y-8113000D02*
X12558000Y-8143000D01*
X12558000Y-8367000D02*
X12588000Y-8397000D01*
X12588000Y-8367000D02*
X12558000Y-8397000D01*
X12558000Y-8621000D02*
X12588000Y-8651000D01*
X12588000Y-8621000D02*
X12558000Y-8651000D01*
X12558000Y-8875000D02*
X12588000Y-8905000D01*
X12588000Y-8875000D02*
X12558000Y-8905000D01*
X12558000Y-9129000D02*
X12588000Y-9159000D01*
X12588000Y-9129000D02*
X12558000Y-9159000D01*
X12558000Y-9383000D02*
X12588000Y-9413000D01*
X12588000Y-9383000D02*
X12558000Y-9413000D01*
X12558000Y-9637000D02*
X12588000Y-9667000D01*
X12588000Y-9637000D02*
X12558000Y-9667000D01*
X12558000Y-9891000D02*
X12588000Y-9921000D01*
X12588000Y-9891000D02*
X12558000Y-9921000D01*
X12688000Y-6973000D02*
X12718000Y-7003000D01*
X12718000Y-6973000D02*
X12688000Y-7003000D01*
D13*
X11853000Y-6604000D02*
G75*
G03*
X11853000Y-6604000I-40000J0D01*
G01*
X11853000Y-6858000D02*
G75*
G03*
X11853000Y-6858000I-40000J0D01*
G01*
X11853000Y-7112000D02*
G75*
G03*
X11853000Y-7112000I-40000J0D01*
G01*
X11853000Y-7366000D02*
G75*
G03*
X11853000Y-7366000I-40000J0D01*
G01*
X11853000Y-7620000D02*
G75*
G03*
X11853000Y-7620000I-40000J0D01*
G01*
X11853000Y-7874000D02*
G75*
G03*
X11853000Y-7874000I-40000J0D01*
G01*
X11853000Y-8128000D02*
G75*
G03*
X11853000Y-8128000I-40000J0D01*
G01*
X11853000Y-8382000D02*
G75*
G03*
X11853000Y-8382000I-40000J0D01*
G01*
X11853000Y-8636000D02*
G75*
G03*
X11853000Y-8636000I-40000J0D01*
G01*
X11853000Y-8890000D02*
G75*
G03*
X11853000Y-8890000I-40000J0D01*
G01*
X11853000Y-9144000D02*
G75*
G03*
X11853000Y-9144000I-40000J0D01*
G01*
X11853000Y-9398000D02*
G75*
G03*
X11853000Y-9398000I-40000J0D01*
G01*
X11853000Y-9652000D02*
G75*
G03*
X11853000Y-9652000I-40000J0D01*
G01*
X11853000Y-9906000D02*
G75*
G03*
X11853000Y-9906000I-40000J0D01*
G01*
X13377000Y-6604000D02*
G75*
G03*
X13377000Y-6604000I-40000J0D01*
G01*
X13377000Y-6858000D02*
G75*
G03*
X13377000Y-6858000I-40000J0D01*
G01*
X13377000Y-7112000D02*
G75*
G03*
X13377000Y-7112000I-40000J0D01*
G01*
X13377000Y-7366000D02*
G75*
G03*
X13377000Y-7366000I-40000J0D01*
G01*
X13377000Y-7620000D02*
G75*
G03*
X13377000Y-7620000I-40000J0D01*
G01*
X13377000Y-7874000D02*
G75*
G03*
X13377000Y-7874000I-40000J0D01*
G01*
X13377000Y-8128000D02*
G75*
G03*
X13377000Y-8128000I-40000J0D01*
G01*
X13377000Y-8382000D02*
G75*
G03*
X13377000Y-8382000I-40000J0D01*
G01*
X13377000Y-8636000D02*
G75*
G03*
X13377000Y-8636000I-40000J0D01*
G01*
X13377000Y-8890000D02*
G75*
G03*
X13377000Y-8890000I-40000J0D01*
G01*
X13377000Y-9144000D02*
G75*
G03*
X13377000Y-9144000I-40000J0D01*
G01*
X13377000Y-9398000D02*
G75*
G03*
X13377000Y-9398000I-40000J0D01*
G01*
X13377000Y-9652000D02*
G75*
G03*
X13377000Y-9652000I-40000J0D01*
G01*
X13377000Y-9906000D02*
G75*
G03*
X13377000Y-9906000I-40000J0D01*
G01*
D11*
X11873119Y-10420976D02*
X11873119Y-10220976D01*
X11920738Y-10220976D01*
X11949309Y-10230500D01*
X11968357Y-10249548D01*
X11977881Y-10268595D01*
X11987405Y-10306690D01*
X11987405Y-10335262D01*
X11977881Y-10373357D01*
X11968357Y-10392405D01*
X11949309Y-10411452D01*
X11920738Y-10420976D01*
X11873119Y-10420976D01*
X12073119Y-10420976D02*
X12073119Y-10287643D01*
X12073119Y-10325738D02*
X12082643Y-10306690D01*
X12092167Y-10297167D01*
X12111214Y-10287643D01*
X12130262Y-10287643D01*
X12196928Y-10420976D02*
X12196928Y-10287643D01*
X12196928Y-10220976D02*
X12187405Y-10230500D01*
X12196928Y-10240024D01*
X12206452Y-10230500D01*
X12196928Y-10220976D01*
X12196928Y-10240024D01*
X12320738Y-10420976D02*
X12301690Y-10411452D01*
X12292167Y-10392405D01*
X12292167Y-10220976D01*
X12425500Y-10420976D02*
X12406452Y-10411452D01*
X12396928Y-10392405D01*
X12396928Y-10220976D01*
X12654071Y-10420976D02*
X12654071Y-10220976D01*
X12720738Y-10363833D01*
X12787405Y-10220976D01*
X12787405Y-10420976D01*
X12968357Y-10420976D02*
X12968357Y-10316214D01*
X12958833Y-10297167D01*
X12939786Y-10287643D01*
X12901690Y-10287643D01*
X12882643Y-10297167D01*
X12968357Y-10411452D02*
X12949309Y-10420976D01*
X12901690Y-10420976D01*
X12882643Y-10411452D01*
X12873119Y-10392405D01*
X12873119Y-10373357D01*
X12882643Y-10354310D01*
X12901690Y-10344786D01*
X12949309Y-10344786D01*
X12968357Y-10335262D01*
X13063595Y-10287643D02*
X13063595Y-10487643D01*
X13063595Y-10297167D02*
X13082643Y-10287643D01*
X13120738Y-10287643D01*
X13139786Y-10297167D01*
X13149309Y-10306690D01*
X13158833Y-10325738D01*
X13158833Y-10382881D01*
X13149309Y-10401929D01*
X13139786Y-10411452D01*
X13120738Y-10420976D01*
X13082643Y-10420976D01*
X13063595Y-10411452D01*
X13244548Y-10401929D02*
X13254071Y-10411452D01*
X13244548Y-10420976D01*
X13235024Y-10411452D01*
X13244548Y-10401929D01*
X13244548Y-10420976D01*
X13244548Y-10297167D02*
X13254071Y-10306690D01*
X13244548Y-10316214D01*
X13235024Y-10306690D01*
X13244548Y-10297167D01*
X13244548Y-10316214D01*
D12*
X11585500Y-10735500D02*
X11615500Y-10765500D01*
X11615500Y-10735500D02*
X11585500Y-10765500D01*
D11*
X11911214Y-10640976D02*
X11930262Y-10640976D01*
X11949309Y-10650500D01*
X11958833Y-10660024D01*
X11968357Y-10679071D01*
X11977881Y-10717167D01*
X11977881Y-10764786D01*
X11968357Y-10802881D01*
X11958833Y-10821929D01*
X11949309Y-10831452D01*
X11930262Y-10840976D01*
X11911214Y-10840976D01*
X11892167Y-10831452D01*
X11882643Y-10821929D01*
X11873119Y-10802881D01*
X11863595Y-10764786D01*
X11863595Y-10717167D01*
X11873119Y-10679071D01*
X11882643Y-10660024D01*
X11892167Y-10650500D01*
X11911214Y-10640976D01*
X12063595Y-10821929D02*
X12073119Y-10831452D01*
X12063595Y-10840976D01*
X12054071Y-10831452D01*
X12063595Y-10821929D01*
X12063595Y-10840976D01*
X12139786Y-10640976D02*
X12263595Y-10640976D01*
X12196928Y-10717167D01*
X12225500Y-10717167D01*
X12244548Y-10726690D01*
X12254071Y-10736214D01*
X12263595Y-10755262D01*
X12263595Y-10802881D01*
X12254071Y-10821929D01*
X12244548Y-10831452D01*
X12225500Y-10840976D01*
X12168357Y-10840976D01*
X12149309Y-10831452D01*
X12139786Y-10821929D01*
X12387405Y-10640976D02*
X12406452Y-10640976D01*
X12425500Y-10650500D01*
X12435024Y-10660024D01*
X12444548Y-10679071D01*
X12454071Y-10717167D01*
X12454071Y-10764786D01*
X12444548Y-10802881D01*
X12435024Y-10821929D01*
X12425500Y-10831452D01*
X12406452Y-10840976D01*
X12387405Y-10840976D01*
X12368357Y-10831452D01*
X12358833Y-10821929D01*
X12349309Y-10802881D01*
X12339786Y-10764786D01*
X12339786Y-10717167D01*
X12349309Y-10679071D01*
X12358833Y-10660024D01*
X12368357Y-10650500D01*
X12387405Y-10640976D01*
X12577881Y-10640976D02*
X12596928Y-10640976D01*
X12615976Y-10650500D01*
X12625500Y-10660024D01*
X12635024Y-10679071D01*
X12644548Y-10717167D01*
X12644548Y-10764786D01*
X12635024Y-10802881D01*
X12625500Y-10821929D01*
X12615976Y-10831452D01*
X12596928Y-10840976D01*
X12577881Y-10840976D01*
X12558833Y-10831452D01*
X12549309Y-10821929D01*
X12539786Y-10802881D01*
X12530262Y-10764786D01*
X12530262Y-10717167D01*
X12539786Y-10679071D01*
X12549309Y-10660024D01*
X12558833Y-10650500D01*
X12577881Y-10640976D01*
X12730262Y-10840976D02*
X12730262Y-10707643D01*
X12730262Y-10726690D02*
X12739786Y-10717167D01*
X12758833Y-10707643D01*
X12787405Y-10707643D01*
X12806452Y-10717167D01*
X12815976Y-10736214D01*
X12815976Y-10840976D01*
X12815976Y-10736214D02*
X12825500Y-10717167D01*
X12844548Y-10707643D01*
X12873119Y-10707643D01*
X12892167Y-10717167D01*
X12901690Y-10736214D01*
X12901690Y-10840976D01*
X12996928Y-10840976D02*
X12996928Y-10707643D01*
X12996928Y-10726690D02*
X13006452Y-10717167D01*
X13025500Y-10707643D01*
X13054071Y-10707643D01*
X13073119Y-10717167D01*
X13082643Y-10736214D01*
X13082643Y-10840976D01*
X13082643Y-10736214D02*
X13092167Y-10717167D01*
X13111214Y-10707643D01*
X13139786Y-10707643D01*
X13158833Y-10717167D01*
X13168357Y-10736214D01*
X13168357Y-10840976D01*
X13558833Y-10631452D02*
X13387405Y-10888595D01*
X13815976Y-10640976D02*
X13835024Y-10640976D01*
X13854071Y-10650500D01*
X13863595Y-10660024D01*
X13873119Y-10679071D01*
X13882643Y-10717167D01*
X13882643Y-10764786D01*
X13873119Y-10802881D01*
X13863595Y-10821929D01*
X13854071Y-10831452D01*
X13835024Y-10840976D01*
X13815976Y-10840976D01*
X13796928Y-10831452D01*
X13787405Y-10821929D01*
X13777881Y-10802881D01*
X13768357Y-10764786D01*
X13768357Y-10717167D01*
X13777881Y-10679071D01*
X13787405Y-10660024D01*
X13796928Y-10650500D01*
X13815976Y-10640976D01*
X13968357Y-10821929D02*
X13977881Y-10831452D01*
X13968357Y-10840976D01*
X13958833Y-10831452D01*
X13968357Y-10821929D01*
X13968357Y-10840976D01*
X14101690Y-10640976D02*
X14120738Y-10640976D01*
X14139786Y-10650500D01*
X14149309Y-10660024D01*
X14158833Y-10679071D01*
X14168357Y-10717167D01*
X14168357Y-10764786D01*
X14158833Y-10802881D01*
X14149309Y-10821929D01*
X14139786Y-10831452D01*
X14120738Y-10840976D01*
X14101690Y-10840976D01*
X14082643Y-10831452D01*
X14073119Y-10821929D01*
X14063595Y-10802881D01*
X14054071Y-10764786D01*
X14054071Y-10717167D01*
X14063595Y-10679071D01*
X14073119Y-10660024D01*
X14082643Y-10650500D01*
X14101690Y-10640976D01*
X14358833Y-10840976D02*
X14244548Y-10840976D01*
X14301690Y-10840976D02*
X14301690Y-10640976D01*
X14282643Y-10669548D01*
X14263595Y-10688595D01*
X14244548Y-10698119D01*
X14549309Y-10840976D02*
X14435024Y-10840976D01*
X14492167Y-10840976D02*
X14492167Y-10640976D01*
X14473119Y-10669548D01*
X14454071Y-10688595D01*
X14435024Y-10698119D01*
X14663595Y-10726690D02*
X14644548Y-10717167D01*
X14635024Y-10707643D01*
X14625500Y-10688595D01*
X14625500Y-10679071D01*
X14635024Y-10660024D01*
X14644548Y-10650500D01*
X14663595Y-10640976D01*
X14701690Y-10640976D01*
X14720738Y-10650500D01*
X14730262Y-10660024D01*
X14739786Y-10679071D01*
X14739786Y-10688595D01*
X14730262Y-10707643D01*
X14720738Y-10717167D01*
X14701690Y-10726690D01*
X14663595Y-10726690D01*
X14644548Y-10736214D01*
X14635024Y-10745738D01*
X14625500Y-10764786D01*
X14625500Y-10802881D01*
X14635024Y-10821929D01*
X14644548Y-10831452D01*
X14663595Y-10840976D01*
X14701690Y-10840976D01*
X14720738Y-10831452D01*
X14730262Y-10821929D01*
X14739786Y-10802881D01*
X14739786Y-10764786D01*
X14730262Y-10745738D01*
X14720738Y-10736214D01*
X14701690Y-10726690D01*
X14815976Y-10640976D02*
X14815976Y-10679071D01*
X14892167Y-10640976D02*
X14892167Y-10679071D01*
X15187405Y-10917167D02*
X15177881Y-10907643D01*
X15158833Y-10879071D01*
X15149309Y-10860024D01*
X15139786Y-10831452D01*
X15130262Y-10783833D01*
X15130262Y-10745738D01*
X15139786Y-10698119D01*
X15149309Y-10669548D01*
X15158833Y-10650500D01*
X15177881Y-10621929D01*
X15187405Y-10612405D01*
X15368357Y-10840976D02*
X15254071Y-10840976D01*
X15311214Y-10840976D02*
X15311214Y-10640976D01*
X15292167Y-10669548D01*
X15273119Y-10688595D01*
X15254071Y-10698119D01*
X15435024Y-10640976D02*
X15568357Y-10640976D01*
X15482643Y-10840976D01*
X15796928Y-10840976D02*
X15796928Y-10640976D01*
X15882643Y-10840976D02*
X15882643Y-10736214D01*
X15873119Y-10717167D01*
X15854071Y-10707643D01*
X15825500Y-10707643D01*
X15806452Y-10717167D01*
X15796928Y-10726690D01*
X16006452Y-10840976D02*
X15987405Y-10831452D01*
X15977881Y-10821929D01*
X15968357Y-10802881D01*
X15968357Y-10745738D01*
X15977881Y-10726690D01*
X15987405Y-10717167D01*
X16006452Y-10707643D01*
X16035024Y-10707643D01*
X16054071Y-10717167D01*
X16063595Y-10726690D01*
X16073119Y-10745738D01*
X16073119Y-10802881D01*
X16063595Y-10821929D01*
X16054071Y-10831452D01*
X16035024Y-10840976D01*
X16006452Y-10840976D01*
X16187405Y-10840976D02*
X16168357Y-10831452D01*
X16158833Y-10812405D01*
X16158833Y-10640976D01*
X16339786Y-10831452D02*
X16320738Y-10840976D01*
X16282643Y-10840976D01*
X16263595Y-10831452D01*
X16254071Y-10812405D01*
X16254071Y-10736214D01*
X16263595Y-10717167D01*
X16282643Y-10707643D01*
X16320738Y-10707643D01*
X16339786Y-10717167D01*
X16349309Y-10736214D01*
X16349309Y-10755262D01*
X16254071Y-10774310D01*
X16425500Y-10831452D02*
X16444548Y-10840976D01*
X16482643Y-10840976D01*
X16501690Y-10831452D01*
X16511214Y-10812405D01*
X16511214Y-10802881D01*
X16501690Y-10783833D01*
X16482643Y-10774310D01*
X16454071Y-10774310D01*
X16435024Y-10764786D01*
X16425500Y-10745738D01*
X16425500Y-10736214D01*
X16435024Y-10717167D01*
X16454071Y-10707643D01*
X16482643Y-10707643D01*
X16501690Y-10717167D01*
X16577881Y-10917167D02*
X16587405Y-10907643D01*
X16606452Y-10879071D01*
X16615976Y-10860024D01*
X16625500Y-10831452D01*
X16635024Y-10783833D01*
X16635024Y-10745738D01*
X16625500Y-10698119D01*
X16615976Y-10669548D01*
X16606452Y-10650500D01*
X16587405Y-10621929D01*
X16577881Y-10612405D01*
D13*
X11615500Y-11014500D02*
G75*
G03*
X11615500Y-11014500I-40000J0D01*
G01*
D11*
X11911214Y-10904976D02*
X11930262Y-10904976D01*
X11949309Y-10914500D01*
X11958833Y-10924024D01*
X11968357Y-10943071D01*
X11977881Y-10981167D01*
X11977881Y-11028786D01*
X11968357Y-11066881D01*
X11958833Y-11085929D01*
X11949309Y-11095452D01*
X11930262Y-11104976D01*
X11911214Y-11104976D01*
X11892167Y-11095452D01*
X11882643Y-11085929D01*
X11873119Y-11066881D01*
X11863595Y-11028786D01*
X11863595Y-10981167D01*
X11873119Y-10943071D01*
X11882643Y-10924024D01*
X11892167Y-10914500D01*
X11911214Y-10904976D01*
X12063595Y-11085929D02*
X12073119Y-11095452D01*
X12063595Y-11104976D01*
X12054071Y-11095452D01*
X12063595Y-11085929D01*
X12063595Y-11104976D01*
X12187405Y-10990690D02*
X12168357Y-10981167D01*
X12158833Y-10971643D01*
X12149309Y-10952595D01*
X12149309Y-10943071D01*
X12158833Y-10924024D01*
X12168357Y-10914500D01*
X12187405Y-10904976D01*
X12225500Y-10904976D01*
X12244548Y-10914500D01*
X12254071Y-10924024D01*
X12263595Y-10943071D01*
X12263595Y-10952595D01*
X12254071Y-10971643D01*
X12244548Y-10981167D01*
X12225500Y-10990690D01*
X12187405Y-10990690D01*
X12168357Y-11000214D01*
X12158833Y-11009738D01*
X12149309Y-11028786D01*
X12149309Y-11066881D01*
X12158833Y-11085929D01*
X12168357Y-11095452D01*
X12187405Y-11104976D01*
X12225500Y-11104976D01*
X12244548Y-11095452D01*
X12254071Y-11085929D01*
X12263595Y-11066881D01*
X12263595Y-11028786D01*
X12254071Y-11009738D01*
X12244548Y-11000214D01*
X12225500Y-10990690D01*
X12387405Y-10904976D02*
X12406452Y-10904976D01*
X12425500Y-10914500D01*
X12435024Y-10924024D01*
X12444548Y-10943071D01*
X12454071Y-10981167D01*
X12454071Y-11028786D01*
X12444548Y-11066881D01*
X12435024Y-11085929D01*
X12425500Y-11095452D01*
X12406452Y-11104976D01*
X12387405Y-11104976D01*
X12368357Y-11095452D01*
X12358833Y-11085929D01*
X12349309Y-11066881D01*
X12339786Y-11028786D01*
X12339786Y-10981167D01*
X12349309Y-10943071D01*
X12358833Y-10924024D01*
X12368357Y-10914500D01*
X12387405Y-10904976D01*
X12577881Y-10904976D02*
X12596928Y-10904976D01*
X12615976Y-10914500D01*
X12625500Y-10924024D01*
X12635024Y-10943071D01*
X12644548Y-10981167D01*
X12644548Y-11028786D01*
X12635024Y-11066881D01*
X12625500Y-11085929D01*
X12615976Y-11095452D01*
X12596928Y-11104976D01*
X12577881Y-11104976D01*
X12558833Y-11095452D01*
X12549309Y-11085929D01*
X12539786Y-11066881D01*
X12530262Y-11028786D01*
X12530262Y-10981167D01*
X12539786Y-10943071D01*
X12549309Y-10924024D01*
X12558833Y-10914500D01*
X12577881Y-10904976D01*
X12730262Y-11104976D02*
X12730262Y-10971643D01*
X12730262Y-10990690D02*
X12739786Y-10981167D01*
X12758833Y-10971643D01*
X12787405Y-10971643D01*
X12806452Y-10981167D01*
X12815976Y-11000214D01*
X12815976Y-11104976D01*
X12815976Y-11000214D02*
X12825500Y-10981167D01*
X12844548Y-10971643D01*
X12873119Y-10971643D01*
X12892167Y-10981167D01*
X12901690Y-11000214D01*
X12901690Y-11104976D01*
X12996928Y-11104976D02*
X12996928Y-10971643D01*
X12996928Y-10990690D02*
X13006452Y-10981167D01*
X13025500Y-10971643D01*
X13054071Y-10971643D01*
X13073119Y-10981167D01*
X13082643Y-11000214D01*
X13082643Y-11104976D01*
X13082643Y-11000214D02*
X13092167Y-10981167D01*
X13111214Y-10971643D01*
X13139786Y-10971643D01*
X13158833Y-10981167D01*
X13168357Y-11000214D01*
X13168357Y-11104976D01*
X13558833Y-10895452D02*
X13387405Y-11152595D01*
X13815976Y-10904976D02*
X13835024Y-10904976D01*
X13854071Y-10914500D01*
X13863595Y-10924024D01*
X13873119Y-10943071D01*
X13882643Y-10981167D01*
X13882643Y-11028786D01*
X13873119Y-11066881D01*
X13863595Y-11085929D01*
X13854071Y-11095452D01*
X13835024Y-11104976D01*
X13815976Y-11104976D01*
X13796928Y-11095452D01*
X13787405Y-11085929D01*
X13777881Y-11066881D01*
X13768357Y-11028786D01*
X13768357Y-10981167D01*
X13777881Y-10943071D01*
X13787405Y-10924024D01*
X13796928Y-10914500D01*
X13815976Y-10904976D01*
X13968357Y-11085929D02*
X13977881Y-11095452D01*
X13968357Y-11104976D01*
X13958833Y-11095452D01*
X13968357Y-11085929D01*
X13968357Y-11104976D01*
X14101690Y-10904976D02*
X14120738Y-10904976D01*
X14139786Y-10914500D01*
X14149309Y-10924024D01*
X14158833Y-10943071D01*
X14168357Y-10981167D01*
X14168357Y-11028786D01*
X14158833Y-11066881D01*
X14149309Y-11085929D01*
X14139786Y-11095452D01*
X14120738Y-11104976D01*
X14101690Y-11104976D01*
X14082643Y-11095452D01*
X14073119Y-11085929D01*
X14063595Y-11066881D01*
X14054071Y-11028786D01*
X14054071Y-10981167D01*
X14063595Y-10943071D01*
X14073119Y-10924024D01*
X14082643Y-10914500D01*
X14101690Y-10904976D01*
X14235024Y-10904976D02*
X14358833Y-10904976D01*
X14292167Y-10981167D01*
X14320738Y-10981167D01*
X14339786Y-10990690D01*
X14349309Y-11000214D01*
X14358833Y-11019262D01*
X14358833Y-11066881D01*
X14349309Y-11085929D01*
X14339786Y-11095452D01*
X14320738Y-11104976D01*
X14263595Y-11104976D01*
X14244548Y-11095452D01*
X14235024Y-11085929D01*
X14549309Y-11104976D02*
X14435024Y-11104976D01*
X14492167Y-11104976D02*
X14492167Y-10904976D01*
X14473119Y-10933548D01*
X14454071Y-10952595D01*
X14435024Y-10962119D01*
X14730262Y-10904976D02*
X14635024Y-10904976D01*
X14625500Y-11000214D01*
X14635024Y-10990690D01*
X14654071Y-10981167D01*
X14701690Y-10981167D01*
X14720738Y-10990690D01*
X14730262Y-11000214D01*
X14739786Y-11019262D01*
X14739786Y-11066881D01*
X14730262Y-11085929D01*
X14720738Y-11095452D01*
X14701690Y-11104976D01*
X14654071Y-11104976D01*
X14635024Y-11095452D01*
X14625500Y-11085929D01*
X14815976Y-10904976D02*
X14815976Y-10943071D01*
X14892167Y-10904976D02*
X14892167Y-10943071D01*
X15187405Y-11181167D02*
X15177881Y-11171643D01*
X15158833Y-11143071D01*
X15149309Y-11124024D01*
X15139786Y-11095452D01*
X15130262Y-11047833D01*
X15130262Y-11009738D01*
X15139786Y-10962119D01*
X15149309Y-10933548D01*
X15158833Y-10914500D01*
X15177881Y-10885929D01*
X15187405Y-10876405D01*
X15254071Y-10924024D02*
X15263595Y-10914500D01*
X15282643Y-10904976D01*
X15330262Y-10904976D01*
X15349309Y-10914500D01*
X15358833Y-10924024D01*
X15368357Y-10943071D01*
X15368357Y-10962119D01*
X15358833Y-10990690D01*
X15244548Y-11104976D01*
X15368357Y-11104976D01*
X15482643Y-10990690D02*
X15463595Y-10981167D01*
X15454071Y-10971643D01*
X15444548Y-10952595D01*
X15444548Y-10943071D01*
X15454071Y-10924024D01*
X15463595Y-10914500D01*
X15482643Y-10904976D01*
X15520738Y-10904976D01*
X15539786Y-10914500D01*
X15549309Y-10924024D01*
X15558833Y-10943071D01*
X15558833Y-10952595D01*
X15549309Y-10971643D01*
X15539786Y-10981167D01*
X15520738Y-10990690D01*
X15482643Y-10990690D01*
X15463595Y-11000214D01*
X15454071Y-11009738D01*
X15444548Y-11028786D01*
X15444548Y-11066881D01*
X15454071Y-11085929D01*
X15463595Y-11095452D01*
X15482643Y-11104976D01*
X15520738Y-11104976D01*
X15539786Y-11095452D01*
X15549309Y-11085929D01*
X15558833Y-11066881D01*
X15558833Y-11028786D01*
X15549309Y-11009738D01*
X15539786Y-11000214D01*
X15520738Y-10990690D01*
X15796928Y-11104976D02*
X15796928Y-10904976D01*
X15882643Y-11104976D02*
X15882643Y-11000214D01*
X15873119Y-10981167D01*
X15854071Y-10971643D01*
X15825500Y-10971643D01*
X15806452Y-10981167D01*
X15796928Y-10990690D01*
X16006452Y-11104976D02*
X15987405Y-11095452D01*
X15977881Y-11085929D01*
X15968357Y-11066881D01*
X15968357Y-11009738D01*
X15977881Y-10990690D01*
X15987405Y-10981167D01*
X16006452Y-10971643D01*
X16035024Y-10971643D01*
X16054071Y-10981167D01*
X16063595Y-10990690D01*
X16073119Y-11009738D01*
X16073119Y-11066881D01*
X16063595Y-11085929D01*
X16054071Y-11095452D01*
X16035024Y-11104976D01*
X16006452Y-11104976D01*
X16187405Y-11104976D02*
X16168357Y-11095452D01*
X16158833Y-11076405D01*
X16158833Y-10904976D01*
X16339786Y-11095452D02*
X16320738Y-11104976D01*
X16282643Y-11104976D01*
X16263595Y-11095452D01*
X16254071Y-11076405D01*
X16254071Y-11000214D01*
X16263595Y-10981167D01*
X16282643Y-10971643D01*
X16320738Y-10971643D01*
X16339786Y-10981167D01*
X16349309Y-11000214D01*
X16349309Y-11019262D01*
X16254071Y-11038310D01*
X16425500Y-11095452D02*
X16444548Y-11104976D01*
X16482643Y-11104976D01*
X16501690Y-11095452D01*
X16511214Y-11076405D01*
X16511214Y-11066881D01*
X16501690Y-11047833D01*
X16482643Y-11038310D01*
X16454071Y-11038310D01*
X16435024Y-11028786D01*
X16425500Y-11009738D01*
X16425500Y-11000214D01*
X16435024Y-10981167D01*
X16454071Y-10971643D01*
X16482643Y-10971643D01*
X16501690Y-10981167D01*
X16577881Y-11181167D02*
X16587405Y-11171643D01*
X16606452Y-11143071D01*
X16615976Y-11124024D01*
X16625500Y-11095452D01*
X16635024Y-11047833D01*
X16635024Y-11009738D01*
X16625500Y-10962119D01*
X16615976Y-10933548D01*
X16606452Y-10914500D01*
X16587405Y-10885929D01*
X16577881Y-10876405D01*
M02*
