%TF.GenerationSoftware,KiCad,Pcbnew,(6.0.1)*%
%TF.CreationDate,2022-01-21T00:47:32+01:00*%
%TF.ProjectId,bosch-kf163-diode-pll,626f7363-682d-46b6-9631-36332d64696f,2*%
%TF.SameCoordinates,Original*%
%TF.FileFunction,Legend,Top*%
%TF.FilePolarity,Positive*%
%FSLAX46Y46*%
G04 Gerber Fmt 4.6, Leading zero omitted, Abs format (unit mm)*
G04 Created by KiCad (PCBNEW (6.0.1)) date 2022-01-21 00:47:32*
%MOMM*%
%LPD*%
G01*
G04 APERTURE LIST*
%ADD10C,0.150000*%
%ADD11C,0.120000*%
G04 APERTURE END LIST*
D10*
X127730000Y-100540000D02*
X123730000Y-100540000D01*
X123730000Y-100540000D02*
X123730000Y-95040000D01*
X123730000Y-95040000D02*
X119730000Y-95040000D01*
X119730000Y-95040000D02*
X119730000Y-64540000D01*
X119730000Y-64540000D02*
X127730000Y-64540000D01*
X127730000Y-64540000D02*
X127730000Y-100540000D01*
G36*
X127730000Y-100540000D02*
G01*
X123730000Y-100540000D01*
X123730000Y-95040000D01*
X119730000Y-95040000D01*
X119730000Y-64540000D01*
X127730000Y-64540000D01*
X127730000Y-100540000D01*
G37*
X127730000Y-100540000D02*
X123730000Y-100540000D01*
X123730000Y-95040000D01*
X119730000Y-95040000D01*
X119730000Y-64540000D01*
X127730000Y-64540000D01*
X127730000Y-100540000D01*
D11*
%TO.C,D2*%
X128040000Y-69430000D02*
X130590000Y-69430000D01*
X128040000Y-67730000D02*
X130590000Y-67730000D01*
X128040000Y-67730000D02*
X128040000Y-69430000D01*
%TO.C,D1*%
X128040000Y-65190000D02*
X130590000Y-65190000D01*
X128040000Y-66890000D02*
X130590000Y-66890000D01*
X128040000Y-65190000D02*
X128040000Y-66890000D01*
%TO.C,D10*%
X128040000Y-89750000D02*
X130590000Y-89750000D01*
X128040000Y-88050000D02*
X130590000Y-88050000D01*
X128040000Y-88050000D02*
X128040000Y-89750000D01*
%TO.C,D14*%
X128040000Y-99910000D02*
X130590000Y-99910000D01*
X128040000Y-98210000D02*
X130590000Y-98210000D01*
X128040000Y-98210000D02*
X128040000Y-99910000D01*
%TO.C,D4*%
X128040000Y-74510000D02*
X130590000Y-74510000D01*
X128040000Y-72810000D02*
X128040000Y-74510000D01*
X128040000Y-72810000D02*
X130590000Y-72810000D01*
%TO.C,D8*%
X128040000Y-82970000D02*
X128040000Y-84670000D01*
X128040000Y-84670000D02*
X130590000Y-84670000D01*
X128040000Y-82970000D02*
X130590000Y-82970000D01*
%TO.C,D12*%
X128040000Y-93130000D02*
X128040000Y-94830000D01*
X128040000Y-94830000D02*
X130590000Y-94830000D01*
X128040000Y-93130000D02*
X130590000Y-93130000D01*
%TO.C,D5*%
X128040000Y-77050000D02*
X130590000Y-77050000D01*
X128040000Y-75350000D02*
X130590000Y-75350000D01*
X128040000Y-75350000D02*
X128040000Y-77050000D01*
%TO.C,D15*%
X123420000Y-99910000D02*
X120870000Y-99910000D01*
X123420000Y-98210000D02*
X120870000Y-98210000D01*
X123420000Y-99910000D02*
X123420000Y-98210000D01*
%TO.C,D16*%
X123420000Y-95670000D02*
X120870000Y-95670000D01*
X123420000Y-97370000D02*
X120870000Y-97370000D01*
X123420000Y-97370000D02*
X123420000Y-95670000D01*
%TO.C,D7*%
X128040000Y-80430000D02*
X130590000Y-80430000D01*
X128040000Y-82130000D02*
X130590000Y-82130000D01*
X128040000Y-80430000D02*
X128040000Y-82130000D01*
%TO.C,D9*%
X128040000Y-85510000D02*
X128040000Y-87210000D01*
X128040000Y-87210000D02*
X130590000Y-87210000D01*
X128040000Y-85510000D02*
X130590000Y-85510000D01*
%TO.C,D6*%
X128040000Y-77890000D02*
X130590000Y-77890000D01*
X128040000Y-79590000D02*
X130590000Y-79590000D01*
X128040000Y-77890000D02*
X128040000Y-79590000D01*
%TO.C,D3*%
X128040000Y-70270000D02*
X128040000Y-71970000D01*
X128040000Y-70270000D02*
X130590000Y-70270000D01*
X128040000Y-71970000D02*
X130590000Y-71970000D01*
%TO.C,D13*%
X128060000Y-95670000D02*
X130610000Y-95670000D01*
X128060000Y-97370000D02*
X130610000Y-97370000D01*
X128060000Y-95670000D02*
X128060000Y-97370000D01*
%TO.C,D11*%
X128040000Y-90590000D02*
X128040000Y-92290000D01*
X128040000Y-90590000D02*
X130590000Y-90590000D01*
X128040000Y-92290000D02*
X130590000Y-92290000D01*
%TD*%
M02*
