%TF.GenerationSoftware,KiCad,Pcbnew,(6.0.1)*%
%TF.CreationDate,2022-01-21T00:47:32+01:00*%
%TF.ProjectId,bosch-kf163-diode-pll,626f7363-682d-46b6-9631-36332d64696f,2*%
%TF.SameCoordinates,Original*%
%TF.FileFunction,Copper,L1,Top*%
%TF.FilePolarity,Positive*%
%FSLAX46Y46*%
G04 Gerber Fmt 4.6, Leading zero omitted, Abs format (unit mm)*
G04 Created by KiCad (PCBNEW (6.0.1)) date 2022-01-21 00:47:32*
%MOMM*%
%LPD*%
G01*
G04 APERTURE LIST*
%TA.AperFunction,SMDPad,CuDef*%
%ADD10R,0.600000X0.450000*%
%TD*%
%TA.AperFunction,ComponentPad*%
%ADD11R,2.400000X1.600000*%
%TD*%
%TA.AperFunction,ComponentPad*%
%ADD12O,2.400000X1.600000*%
%TD*%
%TA.AperFunction,ViaPad*%
%ADD13C,0.750000*%
%TD*%
%TA.AperFunction,Conductor*%
%ADD14C,0.400000*%
%TD*%
%TA.AperFunction,Conductor*%
%ADD15C,0.500000*%
%TD*%
G04 APERTURE END LIST*
D10*
%TO.P,D2,1,K*%
%TO.N,Net-(D2-Pad1)*%
X128490000Y-68580000D03*
%TO.P,D2,2,A*%
%TO.N,Net-(D2-Pad2)*%
X130590000Y-68580000D03*
%TD*%
%TO.P,D1,1,K*%
%TO.N,Net-(D1-Pad1)*%
X128490000Y-66040000D03*
%TO.P,D1,2,A*%
%TO.N,Net-(D1-Pad2)*%
X130590000Y-66040000D03*
%TD*%
%TO.P,D10,1,K*%
%TO.N,Net-(D10-Pad1)*%
X128490000Y-88900000D03*
%TO.P,D10,2,A*%
%TO.N,Net-(D10-Pad2)*%
X130590000Y-88900000D03*
%TD*%
%TO.P,D14,1,K*%
%TO.N,Net-(D14-Pad1)*%
X128490000Y-99060000D03*
%TO.P,D14,2,A*%
%TO.N,Net-(D14-Pad2)*%
X130590000Y-99060000D03*
%TD*%
%TO.P,D4,1,K*%
%TO.N,Net-(D4-Pad1)*%
X128490000Y-73660000D03*
%TO.P,D4,2,A*%
%TO.N,Net-(D4-Pad2)*%
X130590000Y-73660000D03*
%TD*%
%TO.P,D8,1,K*%
%TO.N,Net-(D8-Pad1)*%
X128490000Y-83820000D03*
%TO.P,D8,2,A*%
%TO.N,Net-(D8-Pad2)*%
X130590000Y-83820000D03*
%TD*%
%TO.P,D12,1,K*%
%TO.N,Net-(D12-Pad1)*%
X128490000Y-93980000D03*
%TO.P,D12,2,A*%
%TO.N,Net-(D12-Pad2)*%
X130590000Y-93980000D03*
%TD*%
%TO.P,D5,1,K*%
%TO.N,Net-(D5-Pad1)*%
X128490000Y-76200000D03*
%TO.P,D5,2,A*%
%TO.N,Net-(D5-Pad2)*%
X130590000Y-76200000D03*
%TD*%
%TO.P,D15,1,K*%
%TO.N,Net-(D15-Pad1)*%
X122970000Y-99060000D03*
%TO.P,D15,2,A*%
%TO.N,Net-(D15-Pad2)*%
X120870000Y-99060000D03*
%TD*%
%TO.P,D16,1,K*%
%TO.N,Net-(D16-Pad1)*%
X122970000Y-96520000D03*
%TO.P,D16,2,A*%
%TO.N,Net-(D16-Pad2)*%
X120870000Y-96520000D03*
%TD*%
D11*
%TO.P,U1,1,GND*%
%TO.N,GND*%
X118130000Y-66040000D03*
D12*
%TO.P,U1,2,AR*%
%TO.N,Net-(JP1-Pad3)*%
X118130000Y-68580000D03*
%TO.P,U1,3,AT*%
%TO.N,Net-(JP1-Pad1)*%
X118130000Y-71120000D03*
%TO.P,U1,4,BR*%
%TO.N,unconnected-(U1-Pad4)*%
X118130000Y-73660000D03*
%TO.P,U1,5,BT*%
%TO.N,unconnected-(U1-Pad5)*%
X118130000Y-76200000D03*
%TO.P,U1,6,CR*%
%TO.N,unconnected-(U1-Pad6)*%
X118130000Y-78740000D03*
%TO.P,U1,7,CT*%
%TO.N,unconnected-(U1-Pad7)*%
X118130000Y-81280000D03*
%TO.P,U1,8,DR*%
%TO.N,unconnected-(U1-Pad8)*%
X118130000Y-83820000D03*
%TO.P,U1,9,DT*%
%TO.N,unconnected-(U1-Pad9)*%
X118130000Y-86360000D03*
%TO.P,U1,10,ER*%
%TO.N,unconnected-(U1-Pad10)*%
X118130000Y-88900000D03*
%TO.P,U1,11,ET*%
%TO.N,unconnected-(U1-Pad11)*%
X118130000Y-91440000D03*
%TO.P,U1,12,T*%
%TO.N,unconnected-(U1-Pad12)*%
X118130000Y-93980000D03*
%TO.P,U1,13,1*%
%TO.N,Net-(D16-Pad2)*%
X118130000Y-96520000D03*
%TO.P,U1,14,2*%
%TO.N,Net-(D15-Pad2)*%
X118130000Y-99060000D03*
%TO.P,U1,15,4*%
%TO.N,Net-(D14-Pad2)*%
X133370000Y-99060000D03*
%TO.P,U1,16,8*%
%TO.N,Net-(D13-Pad2)*%
X133370000Y-96520000D03*
%TO.P,U1,17,16*%
%TO.N,Net-(D12-Pad2)*%
X133370000Y-93980000D03*
%TO.P,U1,18,32*%
%TO.N,Net-(D11-Pad2)*%
X133370000Y-91440000D03*
%TO.P,U1,19,64*%
%TO.N,Net-(D10-Pad2)*%
X133370000Y-88900000D03*
%TO.P,U1,20,H*%
%TO.N,Net-(D9-Pad2)*%
X133370000Y-86360000D03*
%TO.P,U1,21,G*%
%TO.N,Net-(D8-Pad2)*%
X133370000Y-83820000D03*
%TO.P,U1,22,F*%
%TO.N,Net-(D7-Pad2)*%
X133370000Y-81280000D03*
%TO.P,U1,23,E*%
%TO.N,Net-(D6-Pad2)*%
X133370000Y-78740000D03*
%TO.P,U1,24,D*%
%TO.N,Net-(D5-Pad2)*%
X133370000Y-76200000D03*
%TO.P,U1,25,C*%
%TO.N,Net-(D4-Pad2)*%
X133370000Y-73660000D03*
%TO.P,U1,26,B*%
%TO.N,Net-(D3-Pad2)*%
X133370000Y-71120000D03*
%TO.P,U1,27,A*%
%TO.N,Net-(D2-Pad2)*%
X133370000Y-68580000D03*
%TO.P,U1,28,STEPSIZE*%
%TO.N,Net-(D1-Pad2)*%
X133370000Y-66040000D03*
%TD*%
D10*
%TO.P,D7,1,K*%
%TO.N,Net-(D7-Pad1)*%
X128490000Y-81280000D03*
%TO.P,D7,2,A*%
%TO.N,Net-(D7-Pad2)*%
X130590000Y-81280000D03*
%TD*%
%TO.P,D9,1,K*%
%TO.N,Net-(D9-Pad1)*%
X128490000Y-86360000D03*
%TO.P,D9,2,A*%
%TO.N,Net-(D9-Pad2)*%
X130590000Y-86360000D03*
%TD*%
%TO.P,D6,1,K*%
%TO.N,Net-(D6-Pad1)*%
X128490000Y-78740000D03*
%TO.P,D6,2,A*%
%TO.N,Net-(D6-Pad2)*%
X130590000Y-78740000D03*
%TD*%
%TO.P,D3,1,K*%
%TO.N,Net-(D3-Pad1)*%
X128490000Y-71120000D03*
%TO.P,D3,2,A*%
%TO.N,Net-(D3-Pad2)*%
X130590000Y-71120000D03*
%TD*%
%TO.P,D13,1,K*%
%TO.N,Net-(D13-Pad1)*%
X128510000Y-96520000D03*
%TO.P,D13,2,A*%
%TO.N,Net-(D13-Pad2)*%
X130610000Y-96520000D03*
%TD*%
%TO.P,D11,1,K*%
%TO.N,Net-(D11-Pad1)*%
X128490000Y-91440000D03*
%TO.P,D11,2,A*%
%TO.N,Net-(D11-Pad2)*%
X130590000Y-91440000D03*
%TD*%
D13*
%TO.N,Net-(D1-Pad1)*%
X125730000Y-66040000D03*
%TO.N,Net-(D2-Pad1)*%
X125730000Y-68580000D03*
%TO.N,Net-(D3-Pad1)*%
X125730000Y-71120000D03*
%TO.N,Net-(D4-Pad1)*%
X125730000Y-73660000D03*
%TO.N,Net-(D5-Pad1)*%
X125730000Y-76200000D03*
%TO.N,Net-(D6-Pad1)*%
X125730000Y-78740000D03*
%TO.N,Net-(D7-Pad1)*%
X125730000Y-81280000D03*
%TO.N,Net-(D8-Pad1)*%
X125730000Y-83820000D03*
%TO.N,Net-(D9-Pad1)*%
X125730000Y-86360000D03*
%TO.N,Net-(D10-Pad1)*%
X125730000Y-88900000D03*
%TO.N,Net-(D11-Pad1)*%
X125730000Y-91440000D03*
%TO.N,Net-(D12-Pad1)*%
X125730000Y-93980000D03*
%TO.N,Net-(D13-Pad1)*%
X125730000Y-96520000D03*
%TO.N,Net-(D14-Pad1)*%
X125730000Y-99060000D03*
%TO.N,Net-(D15-Pad1)*%
X121920000Y-92710000D03*
%TO.N,Net-(D16-Pad1)*%
X121920000Y-87630000D03*
%TO.N,Net-(JP1-Pad1)*%
X127030000Y-69880000D03*
%TD*%
D14*
%TO.N,Net-(D1-Pad1)*%
X128490000Y-66040000D02*
X125730000Y-66040000D01*
%TO.N,Net-(D1-Pad2)*%
X130590000Y-66040000D02*
X133370000Y-66040000D01*
%TO.N,Net-(D2-Pad1)*%
X128490000Y-68580000D02*
X125730000Y-68580000D01*
%TO.N,Net-(D2-Pad2)*%
X130590000Y-68580000D02*
X133370000Y-68580000D01*
%TO.N,Net-(D3-Pad1)*%
X128490000Y-71120000D02*
X125730000Y-71120000D01*
%TO.N,Net-(D3-Pad2)*%
X130590000Y-71120000D02*
X133370000Y-71120000D01*
%TO.N,Net-(D4-Pad1)*%
X128490000Y-73660000D02*
X125730000Y-73660000D01*
%TO.N,Net-(D4-Pad2)*%
X130590000Y-73660000D02*
X133370000Y-73660000D01*
%TO.N,Net-(D5-Pad1)*%
X128490000Y-76200000D02*
X125730000Y-76200000D01*
%TO.N,Net-(D5-Pad2)*%
X130590000Y-76200000D02*
X133370000Y-76200000D01*
%TO.N,Net-(D6-Pad1)*%
X128490000Y-78740000D02*
X125730000Y-78740000D01*
%TO.N,Net-(D6-Pad2)*%
X130590000Y-78740000D02*
X133370000Y-78740000D01*
%TO.N,Net-(D7-Pad1)*%
X128490000Y-81280000D02*
X125730000Y-81280000D01*
%TO.N,Net-(D7-Pad2)*%
X130590000Y-81280000D02*
X133370000Y-81280000D01*
%TO.N,Net-(D8-Pad1)*%
X128490000Y-83820000D02*
X125730000Y-83820000D01*
%TO.N,Net-(D8-Pad2)*%
X130590000Y-83820000D02*
X133370000Y-83820000D01*
%TO.N,Net-(D9-Pad1)*%
X128490000Y-86360000D02*
X125730000Y-86360000D01*
%TO.N,Net-(D9-Pad2)*%
X130590000Y-86360000D02*
X133370000Y-86360000D01*
%TO.N,Net-(D10-Pad1)*%
X128490000Y-88900000D02*
X125730000Y-88900000D01*
%TO.N,Net-(D10-Pad2)*%
X130590000Y-88900000D02*
X133370000Y-88900000D01*
%TO.N,Net-(D11-Pad1)*%
X128490000Y-91440000D02*
X125730000Y-91440000D01*
%TO.N,Net-(D11-Pad2)*%
X130590000Y-91440000D02*
X133370000Y-91440000D01*
%TO.N,Net-(D12-Pad1)*%
X128490000Y-93980000D02*
X125730000Y-93980000D01*
%TO.N,Net-(D12-Pad2)*%
X130590000Y-93980000D02*
X133370000Y-93980000D01*
%TO.N,Net-(D13-Pad1)*%
X128510000Y-96520000D02*
X125730000Y-96520000D01*
%TO.N,Net-(D13-Pad2)*%
X130610000Y-96520000D02*
X133370000Y-96520000D01*
%TO.N,Net-(D14-Pad1)*%
X128490000Y-99060000D02*
X125730000Y-99060000D01*
%TO.N,Net-(D14-Pad2)*%
X130590000Y-99060000D02*
X133370000Y-99060000D01*
%TO.N,Net-(D15-Pad1)*%
X121920000Y-97155000D02*
X122970000Y-98205000D01*
X121920000Y-92710000D02*
X121920000Y-97155000D01*
X122970000Y-98205000D02*
X122970000Y-99060000D01*
%TO.N,Net-(D15-Pad2)*%
X120870000Y-99060000D02*
X118130000Y-99060000D01*
%TO.N,Net-(D16-Pad1)*%
X121920000Y-87630000D02*
X122970000Y-88680000D01*
X122970000Y-88680000D02*
X122970000Y-96520000D01*
%TO.N,Net-(D16-Pad2)*%
X120870000Y-96520000D02*
X118130000Y-96520000D01*
D15*
%TO.N,Net-(JP1-Pad1)*%
X120015000Y-71120000D02*
X121255000Y-69880000D01*
X118130000Y-71120000D02*
X120015000Y-71120000D01*
X121255000Y-69880000D02*
X127030000Y-69880000D01*
%TD*%
M02*
