%FSLAX45Y45*%
G04 Gerber Fmt 4.5, Leading zero omitted, Abs format (unit mm)*
G04 Created by KiCad (PCBNEW (6.0.1)) date 2022-01-21 00:47:44*
%MOMM*%
%LPD*%
G01*
G04 APERTURE LIST*
%TA.AperFunction,Profile*%
%ADD10C,0.150000*%
%TD*%
%ADD11C,0.200000*%
G04 APERTURE END LIST*
D10*
X13523000Y-10103000D02*
X13523000Y-6403000D01*
X11623000Y-10103000D02*
X13523000Y-10103000D01*
X11623000Y-6403000D02*
X11623000Y-10103000D01*
X13523000Y-6403000D02*
X11623000Y-6403000D01*
D11*
X11873119Y-10420976D02*
X11873119Y-10220976D01*
X11920738Y-10220976D01*
X11949309Y-10230500D01*
X11968357Y-10249548D01*
X11977881Y-10268595D01*
X11987405Y-10306690D01*
X11987405Y-10335262D01*
X11977881Y-10373357D01*
X11968357Y-10392405D01*
X11949309Y-10411452D01*
X11920738Y-10420976D01*
X11873119Y-10420976D01*
X12073119Y-10420976D02*
X12073119Y-10287643D01*
X12073119Y-10325738D02*
X12082643Y-10306690D01*
X12092167Y-10297167D01*
X12111214Y-10287643D01*
X12130262Y-10287643D01*
X12196928Y-10420976D02*
X12196928Y-10287643D01*
X12196928Y-10220976D02*
X12187405Y-10230500D01*
X12196928Y-10240024D01*
X12206452Y-10230500D01*
X12196928Y-10220976D01*
X12196928Y-10240024D01*
X12320738Y-10420976D02*
X12301690Y-10411452D01*
X12292167Y-10392405D01*
X12292167Y-10220976D01*
X12425500Y-10420976D02*
X12406452Y-10411452D01*
X12396928Y-10392405D01*
X12396928Y-10220976D01*
X12654071Y-10420976D02*
X12654071Y-10220976D01*
X12720738Y-10363833D01*
X12787405Y-10220976D01*
X12787405Y-10420976D01*
X12968357Y-10420976D02*
X12968357Y-10316214D01*
X12958833Y-10297167D01*
X12939786Y-10287643D01*
X12901690Y-10287643D01*
X12882643Y-10297167D01*
X12968357Y-10411452D02*
X12949309Y-10420976D01*
X12901690Y-10420976D01*
X12882643Y-10411452D01*
X12873119Y-10392405D01*
X12873119Y-10373357D01*
X12882643Y-10354310D01*
X12901690Y-10344786D01*
X12949309Y-10344786D01*
X12968357Y-10335262D01*
X13063595Y-10287643D02*
X13063595Y-10487643D01*
X13063595Y-10297167D02*
X13082643Y-10287643D01*
X13120738Y-10287643D01*
X13139786Y-10297167D01*
X13149309Y-10306690D01*
X13158833Y-10325738D01*
X13158833Y-10382881D01*
X13149309Y-10401929D01*
X13139786Y-10411452D01*
X13120738Y-10420976D01*
X13082643Y-10420976D01*
X13063595Y-10411452D01*
X13244548Y-10401929D02*
X13254071Y-10411452D01*
X13244548Y-10420976D01*
X13235024Y-10411452D01*
X13244548Y-10401929D01*
X13244548Y-10420976D01*
X13244548Y-10297167D02*
X13254071Y-10306690D01*
X13244548Y-10316214D01*
X13235024Y-10306690D01*
X13244548Y-10297167D01*
X13244548Y-10316214D01*
M02*
